<svg width="193" height="52" viewBox="0 0 193 52" fill="none" xmlns="http://www.w3.org/2000/svg">
<g clip-path="url(#clip0_14_9)">
<path d="M62.0901 26.6067C62.0901 27.4919 61.8999 28.325 61.5196 29.106C61.1392 29.8796 60.6194 30.5565 59.9602 31.1367C59.3094 31.7094 58.5403 32.1632 57.6528 32.4979C56.7738 32.8326 55.8314 33 54.8256 33C54.2171 33 53.6085 32.933 53 32.7992V29.3626C53.2705 29.504 53.5621 29.6118 53.8748 29.6862C54.1875 29.7606 54.5045 29.7978 54.8256 29.7978C55.3243 29.7978 55.7934 29.716 56.2329 29.5523C56.6808 29.3812 57.0696 29.1506 57.3992 28.8605C57.7289 28.5704 57.9867 28.232 58.1726 27.8452C58.367 27.4584 58.4642 27.0455 58.4642 26.6067V17H62.0901V26.6067ZM75.833 26.6067V23.4045C75.833 22.9656 75.7358 22.5528 75.5414 22.166C75.3555 21.7717 75.0976 21.4296 74.768 21.1395C74.4384 20.8494 74.0496 20.6225 73.6017 20.4589C73.1621 20.2878 72.6931 20.2022 72.1944 20.2022C71.6957 20.2022 71.2225 20.2878 70.7745 20.4589C70.335 20.6225 69.9504 20.8494 69.6208 21.1395C69.2912 21.4296 69.0292 21.7717 68.8347 22.166C68.6488 22.5528 68.5558 22.9656 68.5558 23.4045V26.6067H75.833ZM79.4716 33H75.833V29.7978H68.5558V33H64.93V23.4045C64.93 22.5193 65.1201 21.6899 65.5005 20.9163C65.8808 20.1353 66.3964 19.4547 67.0472 18.8745C67.7064 18.2943 68.4756 17.8368 69.3545 17.5021C70.242 17.1674 71.1886 17 72.1944 17C73.2002 17 74.1426 17.1674 75.0216 17.5021C75.909 17.8368 76.6824 18.2943 77.3417 18.8745C78.0009 19.4547 78.5207 20.1353 78.9011 20.9163C79.2814 21.6899 79.4716 22.5193 79.4716 23.4045V33ZM97.17 33H93.2779L86.267 22.4672V33H82.6283V17H86.5205L93.5314 27.5439V17H97.17V33ZM111.255 26.6067V23.4045C111.255 22.9656 111.158 22.5528 110.964 22.166C110.778 21.7717 110.52 21.4296 110.19 21.1395C109.861 20.8494 109.472 20.6225 109.024 20.4589C108.584 20.2878 108.115 20.2022 107.617 20.2022C107.118 20.2022 106.645 20.2878 106.197 20.4589C105.757 20.6225 105.373 20.8494 105.043 21.1395C104.713 21.4296 104.451 21.7717 104.257 22.166C104.071 22.5528 103.978 22.9656 103.978 23.4045V26.6067H111.255ZM114.894 33H111.255V29.7978H103.978V33H100.352V23.4045C100.352 22.5193 100.542 21.6899 100.923 20.9163C101.303 20.1353 101.819 19.4547 102.469 18.8745C103.129 18.2943 103.898 17.8368 104.777 17.5021C105.664 17.1674 106.611 17 107.617 17C108.622 17 109.565 17.1674 110.444 17.5021C111.331 17.8368 112.105 18.2943 112.764 18.8745C113.423 19.4547 113.943 20.1353 114.323 20.9163C114.704 21.6899 114.894 22.5193 114.894 23.4045V33ZM121.689 33H118.051V17H121.689V25L128.459 17H132.592L126.849 23.7503L132.592 33H128.459L124.466 26.5286L121.689 29.7978V33ZM137.917 20.2022V26.6067H141.556C142.054 26.6067 142.524 26.5249 142.963 26.3612C143.402 26.1902 143.787 25.9596 144.117 25.6695C144.446 25.3793 144.704 25.0409 144.89 24.6541C145.084 24.2599 145.181 23.8433 145.181 23.4045C145.181 22.9656 145.084 22.5528 144.89 22.166C144.704 21.7717 144.446 21.4296 144.117 21.1395C143.787 20.8494 143.402 20.6225 142.963 20.4589C142.524 20.2878 142.054 20.2022 141.556 20.2022H137.917ZM137.917 33H134.278V17H141.556C142.224 17 142.865 17.0781 143.483 17.2343C144.099 17.3831 144.674 17.5988 145.207 17.8814C145.748 18.1567 146.238 18.4914 146.677 18.8856C147.125 19.2724 147.506 19.7039 147.818 20.1799C148.14 20.656 148.385 21.1655 148.554 21.7085C148.731 22.2515 148.82 22.8168 148.82 23.4045C148.82 24.2822 148.63 25.1116 148.249 25.8926C147.869 26.6662 147.349 27.3431 146.69 27.9233C146.031 28.5035 145.258 28.9609 144.37 29.2957C143.491 29.6304 142.553 29.7978 141.556 29.7978H137.917V33ZM165.302 26.6067C165.302 27.4919 165.111 28.325 164.731 29.106C164.35 29.8796 163.831 30.5565 163.171 31.1367C162.512 31.7094 161.739 32.1632 160.852 32.4979C159.972 32.8326 159.03 33 158.024 33C157.018 33 156.072 32.8326 155.184 32.4979C154.305 32.1632 153.536 31.7094 152.877 31.1367C152.226 30.5565 151.711 29.8796 151.331 29.106C150.95 28.325 150.759 27.4919 150.759 26.6067V17H154.386V26.6067C154.386 27.0455 154.479 27.4584 154.665 27.8452C154.859 28.232 155.121 28.5704 155.45 28.8605C155.78 29.1506 156.165 29.3812 156.604 29.5523C157.052 29.716 157.525 29.7978 158.024 29.7978C158.523 29.7978 158.992 29.716 159.431 29.5523C159.879 29.3812 160.268 29.1506 160.598 28.8605C160.927 28.5704 161.186 28.232 161.371 27.8452C161.566 27.4584 161.663 27.0455 161.663 26.6067V17H165.302V26.6067ZM172.096 20.2022V26.6067H175.735C176.234 26.6067 176.703 26.5249 177.143 26.3612C177.582 26.1902 177.966 25.9596 178.296 25.6695C178.626 25.3793 178.884 25.0409 179.069 24.6541C179.264 24.2599 179.361 23.8433 179.361 23.4045C179.361 22.9656 179.264 22.5528 179.069 22.166C178.884 21.7717 178.626 21.4296 178.296 21.1395C177.966 20.8494 177.582 20.6225 177.143 20.4589C176.703 20.2878 176.234 20.2022 175.735 20.2022H172.096ZM172.096 33H168.458V17H175.735C176.403 17 177.045 17.0781 177.662 17.2343C178.28 17.3831 178.854 17.5988 179.387 17.8814C179.928 18.1567 180.418 18.4914 180.857 18.8856C181.305 19.2724 181.685 19.7039 181.998 20.1799C182.319 20.656 182.564 21.1655 182.734 21.7085C182.911 22.2515 183 22.8168 183 23.4045C183 23.9549 182.919 24.4905 182.759 25.0112C182.607 25.5319 182.383 26.0265 182.087 26.4951C181.8 26.9637 181.444 27.3952 181.022 27.7894C180.6 28.1836 180.126 28.5258 179.602 28.8159L181.618 33H177.751L176.166 29.7754L172.096 29.7978V33Z" fill="#3A78C9"/>
<g clip-path="url(#clip1_14_9)">
<path d="M37.9551 43.9202L36.0433 45.8319C35.8512 46.024 35.614 46.1647 35.3534 46.2414C35.0927 46.3181 34.8171 46.3282 34.5515 46.2709C34.286 46.2135 34.0391 46.0905 33.8334 45.9131C33.6277 45.7356 33.4697 45.5095 33.374 45.2552L27.7874 30.4103L20.682 37.2069L21.2185 42.8135C21.3427 43.9044 21.2278 44.5608 20.2439 45.5447L18.957 46.8316C18.7598 47.0419 18.5148 47.2016 18.2428 47.2971C17.9707 47.3926 17.6797 47.4211 17.3943 47.3803C16.9928 47.3207 16.4341 47.098 16.0406 46.377L12.365 39.8547C12.3378 39.8059 12.3126 39.7549 12.2896 39.7032C12.2868 39.6989 12.2831 39.6953 12.2789 39.6924C12.2267 39.6699 12.1759 39.6445 12.1266 39.6163L5.57058 35.9099C4.86966 35.5178 4.65637 34.967 4.60107 34.5727C4.56386 34.3079 4.58932 34.038 4.67538 33.7848C4.76144 33.5316 4.90571 33.3021 5.0966 33.1148L6.45534 31.7561C7.19002 31.0214 8.23278 30.6379 9.18433 30.7507L14.6868 31.2878L21.5725 24.1953L6.74691 18.6253C6.49266 18.5298 6.26642 18.372 6.08887 18.1665C5.91132 17.9609 5.78812 17.7141 5.73055 17.4487C5.67297 17.1832 5.68285 16.9076 5.75929 16.6469C5.83572 16.3863 5.97627 16.149 6.16808 15.9567L8.10064 14.0241C8.37567 13.7599 8.70668 13.5611 9.06909 13.4423C9.43151 13.3236 9.81601 13.288 10.1941 13.3383L30.0905 15.2737L34.1302 11.0158C34.4174 10.6955 35.2534 9.84804 35.448 9.65342C39.4187 5.68705 43.0769 4.60551 45.2357 6.76428C45.9151 7.44366 46.9033 8.97477 45.8885 11.5924C45.2903 13.1386 44.0996 14.8091 42.3502 16.5585C42.1577 16.751 41.3124 17.5847 40.9878 17.8763L36.7292 21.9138L38.6423 41.8325C38.6915 42.2098 38.6553 42.5932 38.5363 42.9546C38.4173 43.3159 38.2187 43.6459 37.9551 43.9202V43.9202Z" fill="#3A78C9"/>
</g>
</g>
<defs>
<clipPath id="clip0_14_9">
<rect width="193" height="52" fill="white"/>
</clipPath>
<clipPath id="clip1_14_9">
<rect width="52" height="52" fill="white" transform="translate(-8.76955 24) rotate(-45)"/>
</clipPath>
</defs>
</svg>
